<?xml version="1.0" encoding="utf-8"?>
<svg version="1.1" xmlns="http://www.w3.org/2000/svg" viewBox="0 0 342 342">
<rect fill="#FFFFFF" width="342" height="342"/>
<g>
	<path d="M236.6,225.7l16.5-16.5l11,11l-16.5,16.5L236.6,225.7z"/>
	<path d="M209.1,253.3l16.5-16.5l11,11l-16.5,16.5L209.1,253.3z"/>
	<path d="M269.7,258.8l16.5-16.5l11,11l-16.5,16.5L269.7,258.8z"/>
	<path d="M242.1,286.4l16.5-16.5l11,11l-16.5,16.5L242.1,286.4z"/>
	<path d="M253.1,242.3l16.5-16.5l11,11l-16.5,16.5L253.1,242.3z"/>
	<path d="M225.6,269.9l16.5-16.5l11,11l-16.5,16.5L225.6,269.9z"/>
	<path d="M225.7,71.5l11-11l44.1,44.1l-11,11L225.7,71.5z"/>
	<path d="M209.1,88l11-11l16.5,16.5l-11,11L209.1,88z"/>
	<path d="M236.6,115.5l11-11l16.5,16.5l-11,11L236.6,115.5z"/>
	<path d="M242.1,54.9l11-11l16.5,16.5l-11,11L242.1,54.9z"/>
	<path d="M269.6,82.6l11-11l16.5,16.5l-11,11L269.6,82.6z"/>
	<path d="M43.8,253.4l11-11l44.1,44.1l-11,11L43.8,253.4z"/>
	<path d="M87.8,264.4l11-11l16.5,16.5l-11,11L87.8,264.4z"/>
	<path d="M60.3,236.7l11-11l16.5,16.5l-11,11L60.3,236.7z"/>
	<path d="M76.8,220.2l11-11l44.1,44.1l-11,11L76.8,220.2z"/>
	<path d="M43.8,88L87.9,44l11,11L54.8,99L43.8,88z"/>
	<path d="M60.3,104.5l44.1-44.1l11,11l-44.1,44.1L60.3,104.5z"/>
	<path d="M76.8,121.1l44.1-44.1l11,11l-44.1,44.1L76.8,121.1z"/>
</g>
<circle fill="#D80027" cx="170.3" cy="170.7" r="62.3"/>
<path fill="#0052B4" d="M232.2,178.3c-9.6-25.4-44.3-25-61.8,1.3c-17.6,26.3-43.8,16.9-61.6,0.7c4.6,29.9,30.4,52.7,61.6,52.7
	C202.2,233,228.4,209.1,232.2,178.3z"/>
</svg>
