<?xml version="1.0" encoding="utf-8"?>
<svg version="1.1" xmlns="http://www.w3.org/2000/svg" viewBox="0 0 512 341.3">
<rect fill="#0052B4" width="512" height="341.3"/>
<polygon fill="#FFFFFF" points="256,0 256,117.4 209.9,117.4 256,148.1 256,170.7 233.4,170.7 160,121.8 160,170.7 96,170.7 96,121.8
	22.6,170.7 0,170.7 0,148.1 46.1,117.4 0,117.4 0,53.4 46.1,53.4 0,22.7 0,0 22.6,0 96,48.9 96,0 160,0 160,48.9 233.4,0 "/>
<g>
	<polygon fill="#D80027" points="144,0 112,0 112,69.4 0,69.4 0,101.4 112,101.4 112,170.7 144,170.7 144,101.4 256,101.4 256,69.4
		144,69.4 	"/>
	<polygon fill="#D80027" points="0,0 0,15.1 57.4,53.4 80,53.4 	"/>
	<polygon fill="#D80027" points="256,0 256,15.1 198.6,53.4 176,53.4 	"/>
</g>
<polygon fill="#2E52B2" points="256,22.7 256,53.4 209.9,53.4 "/>
<g>
	<polygon fill="#D80027" points="0,0 0,15.1 57.4,53.4 80,53.4 	"/>
	<polygon fill="#D80027" points="256,0 256,15.1 198.6,53.4 176,53.4 	"/>
</g>
<polygon fill="#2E52B2" points="256,22.7 256,53.4 209.9,53.4 "/>
<g>
	<polygon fill="#D80027" points="0,170.7 0,155.6 57.4,117.4 80,117.4 	"/>
	<polygon fill="#D80027" points="256,170.7 256,155.6 198.6,117.4 176,117.4 	"/>
</g>
<g>
	<path fill="#FFFFFF" d="M449,177.7c-0.1,44.4-7.2,92.1-65,114.9c-57.8-22.8-64.9-70.5-65-114.9L449,177.7L449,177.7z"/>
	<path fill="#29DBFF" d="M448.5,196.4c-3.2,39.5-14,76.3-64.5,96.2c-50.3-19.9-61.7-57.9-64.4-96.1"/>
	<path fill="#FFFFFF" d="M446.4,215c-3.6,27.5-18.9,60.5-62.4,77.6c-43.4-17.1-57.1-48.1-62.3-77.4"/>
	<path fill="#29DBFF" d="M442.3,233.3c-6.4,20-21.8,44.6-58.1,59.7c-36.2-14.3-51.1-38.2-58.2-60"/>
	<path fill="#FFFFFF" d="M433.9,252.1c-7.3,12.8-20,28.8-49.8,40.6c-31.1-13-42.3-28.6-49.8-40.8"/>
	<path fill="#29DBFF" d="M417.7,272.7c-9.2,8.1-13.6,12.7-33.5,20.3c-22.7-8.9-25.6-13.1-33-19.8"/>
	<path fill="#5cc85c" d="M384.8,234.8c-0.2-0.2-31.6,40.4-31.6,40.4c-2-1.5-11.3-10.7-15-17l46.7-56.7l45.5,56.2
		c-4.4,7.3-12.9,15.4-14.9,17"/>
</g>
<polygon fill="#5cc85c" points="384,69.3 354,119.7 384,163.3 412.7,118.3 "/>
<ellipse transform="matrix(0.9881 -0.1541 0.1541 0.9881 -28.5215 75.7685)" fill="#F7A226" cx="474.5" cy="221.9" rx="16.5" ry="50.9"/>
<ellipse transform="matrix(0.1353 -0.9908 0.9908 0.1353 34.8165 483.6315)" fill="#F7A226" cx="294.5" cy="221.9" rx="50.9" ry="16.5"/>
</svg>