<?xml version="1.0" encoding="utf-8"?>
<svg version="1.1" xmlns="http://www.w3.org/2000/svg" viewBox="0 0 512 341.3">
<rect y="0" width="512" height="341.3"/>
<path fill="#186DD2" d="M88.8,136.5c-2.2,12.9-3.4,26.2-3.4,39.8c0,13.6,1.2,27,3.4,39.8L256,228.3l167.2-12.1
	c2.2-12.9,3.4-26.2,3.4-39.8s-1.2-27-3.4-39.8"/>
<path fill="#FFFFFF" d="M423.2,219H88.8c15.8,69.8,84.7,122.3,167.2,122.3S407.4,288.8,423.2,219z"/>
<polygon fill="#FFDA44" points="365.9,136.5 146.1,136.5 191,115.4 167.1,71.9 215.9,81.3 222,32 256,68.2 290,32 296.1,81.3
	344.9,71.9 321,115.4 "/>
<g>
	<polygon fill="#C32500" points="256,341.3 0,0 0,341.3 	"/>
	<polygon fill="#C32500" points="512,341.3 512,0 256,341.3 	"/>
</g>
</svg>
