<?xml version="1.0" encoding="utf-8"?>
<svg version="1.1" xmlns="http://www.w3.org/2000/svg" viewBox="0 0 512 341.33">
<rect y="170.66" width="512" height="170.67"/>
<rect y="0" fill="#D80027" width="512" height="170.66"/>
<g>
	<path fill="#FFDA44" d="M193.85,145.72c-9.58,12.72-9.25,28.59,3.47,38.17c0,0,167.19,125.57,169.27,127.42
		c2.08,1.85,6.48,2.44,11.31-3.37c4.59-5.51,3.41-10.06,1.07-11.96S193.85,145.72,193.85,145.72z"/>
	<polygon fill="#FFDA44" points="261.16,77.32 273.21,102.02 300.4,106.1 280.63,125.2 285.16,152.32 260.88,139.41 236.49,152.1
		241.26,125.02 221.66,105.75 248.88,101.92 	"/>
	<path fill="#FFDA44" d="M265.53,36.27l-3.29,22.65c53.27,4.01,95.24,48.51,95.24,102.81c0,56.94-46.16,103.1-103.1,103.1
		c-41.97,0-78.08-25.08-94.17-61.07l-18.92,13.47c20.52,41.73,63.45,70.45,113.09,70.45c69.56,0,125.96-56.39,125.96-125.96
		C380.34,95.93,329.87,41.92,265.53,36.27z"/>
</g>
</svg>
