<svg xmlns="http://www.w3.org/2000/svg" viewBox="0 0 513 342"><path fill="#01237A" d="M0 0h513v342H0z"/><g fill="#FFF"><path d="m384 71.4 5.3 16.2h17.1l-13.9 10.1 5.3 16.2-13.8-10-13.8 10 5.3-16.2-13.9-10.1h17.1zM313.8 100.5l15.2 7.7 12.1-12.1-2.7 16.9 15.3 7.8-16.9 2.6-2.7 16.9-7.8-15.2-16.8 2.7 12.1-12.1zM284.7 170.7l16.3-5.3v-17.1l10 13.8 16.3-5.3-10.1 13.9 10.1 13.8-16.3-5.3-10 13.8v-17.1zM313.8 240.9l7.7-15.3-12-12 16.8 2.6 7.8-15.2 2.7 16.9 16.9 2.7-15.3 7.7 2.7 16.9-12.1-12.1zM384 270l-5.3-16.3h-17.1l13.9-10-5.3-16.3 13.8 10 13.8-10-5.3 16.3 13.9 10h-17.1zM454.2 240.9l-15.2-7.8-12.1 12.1 2.7-16.9-15.3-7.7 16.9-2.7 2.7-16.9 7.8 15.2 16.8-2.6-12.1 12zM483.3 170.7l-16.3 5.2V193l-10-13.8-16.3 5.3 10.1-13.8-10.1-13.9 16.3 5.3 10-13.8v17.1zM454.2 100.5l-7.7 15.2 12 12.1-16.8-2.7-7.8 15.2-2.7-16.9-16.9-2.6 15.3-7.8-2.7-16.9 12.1 12.1zM0 101.3v16h46.1L0 148v7.5l57.4-38.3H80L0 170.7h112v-69.3l-112-.1zm96 69.4H22.6L96 121.8v48.9zM176 53.3 256 0H144v69.3h112v-16h-46.1L256 22.6v-7.5l-57.4 38.3-22.6-.1zM160 0h73.4L160 48.9V0zM144 170.7h112l-80-53.3h22.6l57.4 38.3V148l-46.1-30.7H256v-16H144v69.4zm16-48.9 73.4 48.9H160v-48.9zM112 0H0l80 53.3H57.4L0 15.1v7.5l46.1 30.7H0v16h112V0zM96 48.9 22.6 0H96v48.9z"/></g><g fill="#D80027"><path d="M144 0h-32v69.3H0v32h112v69.4h32v-69.4h112v-32H144z"/><path d="M80 53.3 0 0v15.1l57.4 38.2zM176 53.3h22.6L256 15.1V0zM57.4 117.3 0 155.6v15.1l80-53.4zM176 117.3l80 53.4v-15.1l-57.4-38.3z"/></g></svg>