<svg xmlns="http://www.w3.org/2000/svg" viewBox="0 0 270 180"><path fill="#039" d="M0 0h270v180H0z"/><g fill="#FC0"><path d="m135 20 2.2 6.9h7.3l-5.9 4.3 2.2 6.9-5.9-4.3-5.9 4.3 2.2-6.9-5.9-4.3h7.3L135 20zM187 110l2.2 6.9h7.3l-5.9 4.3 2.2 6.9-5.9-4.3-5.9 4.3 2.2-6.9-5.9-4.3h7.3l2.4-6.9zM135 140l2.2 6.9h7.3l-5.9 4.3 2.2 6.9-5.9-4.3-5.9 4.3 2.2-6.9-5.9-4.3h7.3l2.4-6.9zM195 80l2.2 6.9h7.3l-5.9 4.3 2.2 6.9-5.9-4.3-5.9 4.3 2.2-6.9-5.9-4.3h7.3L195 80zM75 80l2.2 6.9h7.3l-5.9 4.3 2.2 6.9-5.8-4.3-5.9 4.3 2.2-6.9-5.9-4.3h7.3L75 80zM165 28l2.2 6.9h7.3l-5.9 4.3 2.2 6.9-5.9-4.3-5.9 4.3 2.2-6.9-5.9-4.3h7.3L165 28zM105 28l2.2 6.9h7.3l-5.9 4.3 2.2 6.9-5.9-4.3-5.9 4.3 2.2-6.9-5.9-4.3h7.3L105 28zM105 132l2.2 6.9h7.3l-5.9 4.3 2.2 6.9-5.9-4.3-5.9 4.3 2.2-6.9-5.9-4.3h7.3l2.4-6.9zM165 132l2.2 6.9h7.3l-5.9 4.3 2.2 6.9-5.9-4.3-5.9 4.3 2.2-6.9-5.9-4.3h7.3l2.4-6.9zM187 50l2.2 6.9h7.3l-5.9 4.3 2.2 6.9-5.9-4.3-5.9 4.3 2.2-6.9-5.9-4.3h7.3L187 50zM83 50l2.2 6.9h7.3l-5.9 4.3 2.2 6.9-5.8-4.3-5.9 4.3 2.2-6.9-5.9-4.3h7.3L83 50zM83 110l2.2 6.9h7.3l-5.9 4.3 2.2 6.9-5.9-4.3-5.9 4.3 2.2-6.9-5.9-4.3h7.3L83 110z"/></g></svg>