<svg xmlns="http://www.w3.org/2000/svg" viewBox="0 0 21 14"><path fill="#FFF" d="M0 0h21v14H0V0z"/><path fill="#EE1C25" d="M0 0h21v14H0V0z"/><path fill="#FFF" d="M12 6.7c-.8-.5-1 .4-1 0 0-.8.9-1.5 2-1.5s2 .7 2 1.5c-.9 0-1 .5-1.5.5-.6 0-.7 0-1.5-.5zm1.2-.2c.1 0 .2-.1.2-.2s0-.3-.2-.3-.2.1-.2.2.1.3.2.3zm-1.8 2c.2-.9-.7-.8-.3-.9.8-.3 1.7.4 2 1.4.3 1.1 0 2.1-.8 2.4-.3-.9-.8-.8-.9-1.3-.1-.6-.2-.7 0-1.6zm.6 1.1c0 .1.2.2.3.2.1 0 .2-.2.2-.3s-.2-.2-.3-.2c-.2 0-.2.2-.2.3zM9.6 8.5c.9-.1.6-.9.8-.6.5.7.2 1.7-.7 2.4-.9.6-2 .6-2.5 0 .8-.6.6-1 .9-1.3.4-.4.5-.5 1.5-.5zm-.9.9c-.1 0-.2.2-.1.3s.3.2.4.1.1-.3 0-.4-.2-.1-.3 0zM9 6.7c.3.9 1 .3.8.6-.5.7-1.6.7-2.5 0-.9-.6-1.2-1.7-.7-2.4.8.6 1.1.2 1.5.5.4.4.5.4.9 1.3zm-1.1-.6c-.1-.1-.3 0-.4.1s-.1.3 0 .4c.1.1.3 0 .3-.1.2-.1.2-.3.1-.4zm2.6-.5c-.7.6.1 1.1-.3 1-.8-.3-1.2-1.4-.8-2.4.3-1 1.3-1.7 2-1.4-.3.9.2 1.1 0 1.6-.1.5-.2.6-.9 1.2zm.2-1.2c0-.1 0-.3-.1-.3s-.3 0-.3.1 0 .3.2.3c0 .1.1 0 .2-.1z"/></svg>