<svg xmlns="http://www.w3.org/2000/svg" viewBox="0 0 513 342"><path fill="#D80027" d="M0 0h513v342H0z"/><g fill="#FFF"><path d="M274.2 119.8c-5.1 21.1-14.1 17.1-18.5 35.5-26.1-6.3-42.1-32.5-35.9-58.6 6.3-26.1 32.5-42.1 58.5-35.9-8.7 36.9.5 40.1-4.1 59zM206.6 135.4c18.5 11.3 11.9 18.7 28 28.6-14 22.9-43.9 30-66.8 16s-30-43.9-16-66.8c32.3 19.8 38.2 12.1 54.8 22.2zM200.6 204.6c16.5-14.1 21.4-5.5 35.8-17.8 17.4 20.4 15 51-5.4 68.4-20.4 17.4-51 15-68.4-5.4 28.7-24.6 23.2-32.6 38-45.2zM264.5 231.7c-8.3-20.1 1.4-22.1-5.9-39.6 24.8-10.3 53.2 1.5 63.4 26.3 10.3 24.8-1.5 53.2-26.3 63.4-14.5-35-23.8-32.2-31.2-50.1zM310 179.3c-21.6 1.7-20.6-8.1-39.5-6.6-2.1-26.7 17.9-50.1 44.6-52.2 26.7-2.1 50.1 17.9 52.2 44.6-37.7 2.9-37.9 12.7-57.3 14.2z"/></g></svg>