<svg xmlns="http://www.w3.org/2000/svg" viewBox="0 0 450 300">
	<path fill="#CE1126" d="M0 0h450v300H0V0z"/>
	<g transform="translate(-75)" fill="#FCD116" stroke="#BD9C08" stroke-width="1.2">
		<circle cx="300" cy="150" r="80"/>
	</g>
	<path fill="#003F87" d="M0 165h450v135H0V165z"/>
	<path fill="#FFF" d="M0 257c15 0 30 13 45 13s30-13 45-13 30 13 45 13 30-13 45-13 30 13 45 13 30-13 45-13 30 13 45 13 30-13 45-13 30 13 45 13 30-13 45-13v-21c-15 0-30 13-45 13s-30-13-45-13-30 13-45 13-30-13-45-13-30 13-45 13-30-13-45-13-30 13-45 13-30-13-45-13-30 13-45 13-30-13-45-13v21zM0 214c15 0 30 13 45 13s30-13 45-13 30 13 45 13 30-13 45-13 30 13 45 13 30-13 45-13 30 13 45 13 30-13 45-13 30 13 45 13 30-13 45-13v-21c-15 0-30 13-45 13s-30-13-45-13-30 13-45 13-30-13-45-13-30 13-45 13-30-13-45-13-30 13-45 13-30-13-45-13-30 13-45 13-30-13-45-13v21zM0 171c15 0 30 13 45 13s30-13 45-13 30 13 45 13 30-13 45-13 30 13 45 13 30-13 45-13 30 13 45 13 30-13 45-13 30 13 45 13 30-13 45-13v-21c-15 0-30 13-45 13s-30-13-45-13-30 13-45 13-30-13-45-13-30 13-45 13-30-13-45-13-30 13-45 13-30-13-45-13-30 13-45 13-30-13-45-13v21z"/>
</svg>