<svg xmlns="http://www.w3.org/2000/svg" viewBox="0 0 513 342"><path fill="#0F7562" d="M0 0h513v342H0z"/><g fill="#FFDA44"><path d="M286.2 168.5c-4.2 0-8.2.8-11.9 2.2 2-4.5 3.4-9.5 3.4-14.9 0-21.2-21.2-37.1-21.2-37.1s-21.2 15.9-21.2 37.1c0 5.4 1.4 10.4 3.4 14.9-3.7-1.3-7.7-2.2-11.9-2.2-25.6 0-37.1 11.2-37.1 11.2s15.9 31.2 37.1 31.2c12.4 0 23-7.3 29.7-13.3 6.6 6 17.3 13.3 29.7 13.3 21.2 0 37.1-31.2 37.1-31.2s-10.8-11.2-37.1-11.2zM256.5 71.7l4.4 13.5h14.2l-11.5 8.3L268 107l-11.5-8.3L245 107l4.4-13.5-11.5-8.3h14.2zM202.6 95.3l8.4 7.6 9.9-5.7-4.7 10.4 8.5 7.6-11.3-1.2-4.6 10.3-2.4-11.1-11.3-1.1 9.9-5.7zM163.2 134.8l11.1 2.3 5.6-9.8 1.2 11.3 11.1 2.3-10.4 4.6 1.2 11.3-7.6-8.4-10.3 4.6 5.6-9.8zM310.4 95.3l-8.4 7.6-9.9-5.7 4.7 10.4-8.5 7.6 11.3-1.2 4.6 10.3 2.4-11.1 11.3-1.1-9.9-5.7zM349.8 134.8l-11.1 2.3-5.6-9.8-1.2 11.3-11.1 2.3 10.4 4.6-1.2 11.3 7.6-8.4 10.3 4.6-5.6-9.8z"/></g><g fill="#FFF"><path d="M256.5 270.3c16.8 0 32.4-5.6 44.8-15.1h-89.6c12.4 9.4 28 15.1 44.8 15.1zM188.5 225.7c2.4 5.4 5.3 10.4 8.9 15.1H238c13.9 0 18.5-7 18.5-7s5.3 7 18.6 7h40.6c3.5-4.6 6.5-9.7 8.9-15.1h-49.5c-15.5 0-18.6-10-18.6-10s-5.3 10-18.5 10h-49.5z"/></g></svg>