<?xml version="1.0" encoding="utf-8"?>
<svg version="1.1" xmlns="http://www.w3.org/2000/svg" viewBox="0 0 512 341.3">
<rect y="0" fill="#FFFFFF" width="512" height="341.3"/>
<g>
	<rect y="42.7" fill="#D80027" width="512" height="42.7"/>
	<rect y="128" fill="#D80027" width="512" height="42.7"/>
	<rect y="213.3" fill="#D80027" width="512" height="42.7"/>
	<rect y="298.7" fill="#D80027" width="512" height="42.7"/>
</g>
<rect y="0" fill="#2E52B2" width="248.7" height="170.7"/>
<g>
	<polygon fill="#FFFFFF" points="95.8,68.7 91.7,81.4 78.4,81.4 89.2,89.3 85,101.9 95.8,94.1 106.6,101.9 102.5,89.3 113.3,81.4
		99.9,81.4 	"/>
	<polygon fill="#FFFFFF" points="99.9,127.2 95.8,114.5 91.7,127.2 78.4,127.2 89.2,135 85,147.7 95.8,139.9 106.6,147.7 102.5,135
		113.3,127.2 	"/>
	<polygon fill="#FFFFFF" points="43.6,127.2 39.5,114.5 35.3,127.2 22,127.2 32.8,135 28.7,147.7 39.5,139.9 50.2,147.7 46.1,135
		56.9,127.2 	"/>
	<polygon fill="#FFFFFF" points="39.5,68.7 35.3,81.4 22,81.4 32.8,89.3 28.7,101.9 39.5,94.1 50.2,101.9 46.1,89.3 56.9,81.4
		43.6,81.4 	"/>
	<polygon fill="#FFFFFF" points="95.8,23 91.7,35.6 78.4,35.6 89.2,43.5 85,56.2 95.8,48.3 106.6,56.2 102.5,43.5 113.3,35.6
		99.9,35.6 	"/>
	<polygon fill="#FFFFFF" points="39.5,23 35.3,35.6 22,35.6 32.8,43.5 28.7,56.2 39.5,48.3 50.2,56.2 46.1,43.5 56.9,35.6 43.6,35.6
		"/>
	<polygon fill="#FFFFFF" points="152.2,68.7 148.1,81.4 134.7,81.4 145.5,89.3 141.4,101.9 152.2,94.1 163,101.9 158.8,89.3
		169.6,81.4 156.3,81.4 	"/>
	<polygon fill="#FFFFFF" points="156.3,127.2 152.2,114.5 148.1,127.2 134.7,127.2 145.5,135 141.4,147.7 152.2,139.9 163,147.7
		158.8,135 169.6,127.2 	"/>
	<polygon fill="#FFFFFF" points="212.7,127.2 208.5,114.5 204.4,127.2 191.1,127.2 201.9,135 197.8,147.7 208.5,139.9 219.3,147.7
		215.2,135 226,127.2 	"/>
	<polygon fill="#FFFFFF" points="208.5,68.7 204.4,81.4 191.1,81.4 201.9,89.3 197.8,101.9 208.5,94.1 219.3,101.9 215.2,89.3
		226,81.4 212.7,81.4 	"/>
	<polygon fill="#FFFFFF" points="152.2,23 148.1,35.6 134.7,35.6 145.5,43.5 141.4,56.2 152.2,48.3 163,56.2 158.8,43.5 169.6,35.6
		156.3,35.6 	"/>
	<polygon fill="#FFFFFF" points="208.5,23 204.4,35.6 191.1,35.6 201.9,43.5 197.8,56.2 208.5,48.3 219.3,56.2 215.2,43.5 226,35.6
		212.7,35.6 	"/>
</g>
</svg>
