<?xml version="1.0" encoding="utf-8"?>
<svg version="1.1" xmlns="http://www.w3.org/2000/svg" viewBox="85.5 0 342 342">
<rect fill="#01237A" y="0" width="513" height="342"/>
<g fill="#FFFFFF">
	<polygon points="384,71.4 389.3,87.6 406.4,87.6 392.5,97.7 397.8,113.9 384,103.9 370.2,113.9 375.5,97.7 361.6,87.6
		378.7,87.6 	"/>
	<polygon points="313.8,100.5 329,108.2 341.1,96.1 338.4,113 353.7,120.8 336.8,123.4 334.1,140.3 326.3,125.1
		309.5,127.8 321.6,115.7 	"/>
	<polygon points="284.7,170.7 301,165.4 301,148.3 311,162.1 327.3,156.8 317.2,170.7 327.3,184.5 311,179.2 301,193
		301,175.9 	"/>
	<polygon points="313.8,240.9 321.5,225.6 309.5,213.6 326.3,216.2 334.1,201 336.8,217.9 353.7,220.6 338.4,228.3
		341.1,245.2 329,233.1 	"/>
	<polygon points="384,270 378.7,253.7 361.6,253.7 375.5,243.7 370.2,227.4 384,237.4 397.8,227.4 392.5,243.7
		406.4,253.7 389.3,253.7 	"/>
	<polygon points="454.2,240.9 439,233.1 426.9,245.2 429.6,228.3 414.3,220.6 431.2,217.9 433.9,201 441.7,216.2
		458.5,213.6 446.4,225.6 	"/>
	<polygon points="483.3,170.7 467,175.9 467,193 457,179.2 440.7,184.5 450.8,170.7 440.7,156.8 457,162.1 467,148.3
		467,165.4 	"/>
	<polygon points="454.2,100.5 446.5,115.7 458.5,127.8 441.7,125.1 433.9,140.3 431.2,123.4 414.3,120.8 429.6,113
		426.9,96.1 439,108.2 	"/>
	<path d="M0,101.3v16h46.1L0,148v7.5l57.4-38.3H80L0,170.7h112v-69.3L0,101.3L0,101.3z M96,170.7H22.6L96,121.8V170.7z"
		/>
	<path d="M176,53.3L256,0H144v69.3h112v-16h-46.1L256,22.6v-7.5l-57.4,38.3L176,53.3L176,53.3z M160,0h73.4L160,48.9V0z
		"/>
	<path d="M144,170.7h112l-80-53.3h22.6l57.4,38.3V148l-46.1-30.7H256v-16H144V170.7z M160,121.8l73.4,48.9H160V121.8z"
		/>
	<path d="M112,0H0l80,53.3H57.4L0,15.1v7.5l46.1,30.7H0v16h112V0z M96,48.9L22.6,0H96V48.9z"/>
</g>
<g fill="#D80027">
	<polygon points="144,0 112,0 112,69.3 0,69.3 0,101.3 112,101.3 112,170.7 144,170.7 144,101.3 256,101.3 256,69.3
		144,69.3 	"/>
	<polygon points="80,53.3 0,0 0,15.1 57.4,53.3 	"/>
	<polygon points="176,53.3 198.6,53.3 256,15.1 256,0 	"/>
	<polygon points="57.4,117.3 0,155.6 0,170.7 80,117.3 	"/>
	<polygon points="176,117.3 256,170.7 256,155.6 198.6,117.3 	"/>
</g>
</svg>
