<?xml version="1.0" encoding="utf-8"?>
<svg version="1.1" xmlns="http://www.w3.org/2000/svg" viewBox="0 0 342 342">
<rect fill="#fedd00" width="513" height="342"/>
<rect fill="#FFFFFF" width="256.5" height="171"/>
<g fill="#c8102e">
	<polygon points="144.3,0.2 112.2,0.2 112.2,69.6 0,69.6 0,101.6 112.2,101.6 112.2,171 144.3,171 144.3,101.6
		256.5,101.6 256.5,69.6 144.3,69.6 	"/>
	<polygon points="0,0.2 0,15.3 57.5,53.6 80.2,53.6 	"/>
</g>
<g fill="#012169">
	<polygon points="0,22.8 0,53.6 46.2,53.6 	"/>
	<polygon points="96.2,0.2 96.2,49.1 22.7,0.2 	"/>
</g>
<polygon fill="#c8102e" points="246.5,0.2 256.5,0.2 256.5,8.6 189,53.6 166.3,53.6 "/>
<g fill="#012169">
	<polygon points="256.5,22.8 256.5,53.6 210.3,53.6 	"/>
	<polygon points="160.3,0.2 160.3,49.1 233.8,0.2 	"/>
</g>
<polygon fill="#c8102e" points="0,0.2 0,15.3 57.5,53.6 80.2,53.6 "/>
<g fill="#012169">
	<polygon points="0,22.8 0,53.6 46.2,53.6 	"/>
	<polygon points="96.2,0.2 96.2,49.1 22.7,0.2 	"/>
	<polygon points="256.5,22.8 256.5,53.6 210.3,53.6 	"/>
	<polygon points="160.3,0.2 160.3,49.1 233.8,0.2 	"/>
</g>
<polygon fill="#c8102e" points="11,171 0,171.1 0,163.2 68.5,117.6 91.2,117.6 "/>
<g fill="#012169">
	<polygon points="0,148.4 0,117.6 46.2,117.6 	"/>
	<polygon points="96.2,171 96.2,122 22.7,171 	"/>
</g>
<polygon fill="#c8102e" points="256.5,171 256.5,155.9 199,117.6 176.3,117.6 "/>
<g fill="#012169">
	<polygon points="256.5,148.4 256.5,117.6 210.3,117.6 	"/>
	<polygon points="160.3,171 160.3,122 233.8,171 	"/>
</g>
<ellipse fill="#012169" cx="126.8" cy="85.7" rx="29.9" ry="29.9"/>
<g fill="#fedd00">
	<polygon points="128.3,128.6 131.8,139.5 143.3,139.5 134,146.2 137.5,157.1 128.3,150.4 119,157.1 122.5,146.2
		113.3,139.5 124.7,139.5 	"/>
	<polygon points="128.2,13.2 131.8,24.1 143.2,24.1 134,30.8 137.5,41.7 128.2,35 119,41.7 122.5,30.8 113.2,24.1
		124.7,24.1 	"/>
	<polygon points="204.6,71.3 208.1,82.2 219.6,82.2 210.3,88.9 213.8,99.8 204.6,93.1 195.3,99.8 198.8,88.9
		189.6,82.2 201,82.2 	"/>
	<polygon points="52.8,71.4 56.4,82.3 67.8,82.3 58.5,89.1 62.1,99.9 52.8,93.2 43.5,99.9 47.1,89.1 37.8,82.3
		49.3,82.3 	"/>
	<polygon points="126.8,55.8 133.5,76.5 155.3,76.5 137.6,89.3 144.4,109.9 126.8,97.2 109.1,109.9 115.9,89.3
		98.3,76.5 120,76.5 	"/>
</g>
</svg>
