<svg
    xmlns="http://www.w3.org/2000/svg" xml:space="preserve" viewBox="85.5 0 342 342">
		<rect fill="#ffffff" width="513" height="342"/>
    <g fill="#055e1c">
        <path d="M1 0H0v342h513V0H1m216 75q1 2-2 5t-1 4q2 3-1 6-1 2-4-1c-4-3-4-10 0-13q5-6 8-1m-102 2 1 6q0 3-3 4-4 0-4-6l2-4zm38 1 2 2q-1 3-6 4-5-1-5-4c0-4 6-5 9-2m48 2q3 3 1 9c0 2-21 19-23 19q-4-1-4-4l5-5 7-6v-3c-5-9 7-18 14-10m35-3v7q-3 7-6 6c-3-1-4 14-1 19q4 4 7-1c2-3 3-4 3-15 0-12 0-12 2-13q4-2 5 13 0 11 2 13 4 6 7 3 2-1-1-12-5-12 0-15 3-3 5-1h5q1-2 8 1l7 2 1-2q2-4 6-1l3 17c2 16 2 16 7 24l15 30q0 6-4 5l-8-13-6-13v20c1 21 1 23-3 23q-3 2-4-15l-1-27-1-16-9-13c-8-12-9-12-12-12s-3-1-2 5l2 7q0 3 4 2 6-3 6 3-2 3-8 5l-6 2-4 2q-7 0-10-3-2-3-5 1-5 5-13 3-4-3-6-10l-1-3-1 2q-4 6-9 8-7 0-10-12-1-9 3-10 2 0 5 7l2 6 3-7q7-16 14-12h1c-1-1 2-10 3-11zm-98 10 3 16v9h11c1-2 1-3-2-12l-2-11 3-2 10 5v-4l1-6q3-4 6 0l2 23 2 21 2-1q5 0 5 5 0 6 3 0 2-8 8-2 0 3 2 1 0-8 4-7c5 0 5 7 0 13l-6 3-6 2q-7 3-10-1l-2-2v5c0 21-17 42-35 42-12 0-22-9-22-21l2-6q6-2 5 6 3 12 14 13c7 2 18-5 23-15q6-12 1-5-13 18-28 11-8-5-9-17-1-5 2-7 3-3 6 6 1 13 10 12 8 0 12-8 6-8 0-7-14 0-8-12 8-11 17-5l2 3v-12l-4-23q-3 1 0 7c1 6 1 6-1 10l-5 5q-4 3-7 1h-4l-2 16c0 19 0 20-3 21-4 1-5-2-4-18v-16l-3 1q-2 1-5-2c-3-2-3-2-3-14q0-10-2-12l-1 10-1 13q-4 6-9 4-4 0-6-15-4-15 2-14 3-2 5 9v5l1-7q0-14 9-12 4 0 7 3c3 3 2 3 2 13v11l2-1q3 1 2-8l-3-16q-3-12 3-11 3 0 4 7m163-3q6 9 2 13-3 3-7-7-3-10 1-10 4 1 4 4m13-3 3 7v8l1 16 2 27c2 22 2 22 5 22h3v-5l-2-24-3-33c-2-16-2-19 2-19 3 0 8 14 6 16l1 24c4 47 4 48 0 47q-3-2-1 4l1 6q3 2 6-9 7-18 9-16 3-2 8 6 4 6 7 6 3-2 1-33l-1-20-10-13-10-16q1-4 9-1 6 3 5 6l3 6q3 5 1-4 0-9 3-10c4 0 8 10 6 14v9q0 6 4 11l3 3-2-15c-2-17-2-20 1-21q2 1 5 4l3 5h2q8-3 8 9 0 8-4 8-2 1-3-6 0-8-3-5c-2 2-2 3 0 20l3 17 4 7c7 10 12 21 11 22q0 3-3 2l-6-8-4-7v8c0 10 0 10-2 11q-5 1-5-8l-1-16c-1-8-1-10-5-15l-3-5v19c0 21 0 25-5 29q-6 3-14-4l-5-4-3 8q-4 13-12 15-6-1-11-16 0-7-4-1c-3 5-12 13-19 17q-7 4-9-2l7-6c9-5 17-14 17-18l-6-79q3-3 6 0m90 5 4 6-2 3-2 2 4 24q5 26 3 35c0 10 0 11-3 17q-5 14-19 14l-7-1q-3-3 8-6 14-3 14-24-2-38-8-75 2-3 8 5m-212 19 1 4q-1 3 2 2 4 1 5 4c0 4-9 6-13 2-5-5 0-17 5-12m108 1h2l3-1q6 3 0 7-5 6-11-1v-5zm56 2q3 5-1 6-3-1-1 5 1 5-2 6-1 2-9-6-9-7-6-9 2-3 6 0l3 2 2-2q5-5 8-2m-132 13 6 17q-1 6 5 2 5-4 10-4 7-3 7-5 5-9 11-11 9-1 11 8 1 7-17 13l-1 1 13 1c16 0 16 0 13 9q-1 7-4 7l-10 2q-20 3-17 9l4 4q6 1 3 6l-8 1q-12-2-21-9l-3-4-2 3q-7 11-18 14-10 0-15-10l-6 1q-17 11-18 8l-2-3c0-2 0-2 15-10l9-7q0-3 5-4c2 1 9-5 11-9q5-6 0-15l-2-8q2-5 6-6c3 0 8 5 8 7q-1 4-4 3v2l1 9c0 9-1 13-11 21l-6 6 2 3q4 9 15-2 11-8 9-23 0-11-5-24v-4q3-4 6 1m17 3h4q9-4 5 5c-4 4-12 4-15-1v-4q3-3 6 0m118 4q2 0 2 3l-7 7q-11 9-11 5-6-3 6-10c8-6 8-6 10-5m-229 3q2 2-10 10t-15 3q-2-1 11-9 12-9 14-4m230 10c2 2 4 9 2 11q-2 4-5 1c-2-1-3-11-2-13q3-2 5 1m-173 8q3 1 2 6 0 6-3 5-3 1-4-3l-2-4v-6q2-3 7 2m-79 8 1 8q0 9 2 6 5-2 5 3-2 6-8 7-6-1-6-14l1-10zm168 12q0 4 2 2 6-1 5 3-2 6-8 8l-5-2q-1-3-4-2-3 0-4-4l5-6q6-6 7-4 3 2 2 5m102 3q3 4 2 9-8 8-8-4 0-11 6-5m-41 74c0 1 0 2 12 2 19 0 22 3 22 11q0 9-7 10c-8 3-30 2-33 0q-2-2-2-5v-5H173c-18 0-29-11-29-11h92c90 0 92 0 92-2q0-4 4-5 6 1 5 5"/>
        <path d="M336 259h26q2 2 1 3c0 5-22 3-23 3s-4-1-4-2z"/>
    </g>
</svg>