<?xml version="1.0" encoding="utf-8"?>
<svg version="1.1" xmlns="http://www.w3.org/2000/svg" viewBox="0 0 513 342">
	<rect fill="#D32011" width="513" height="342"/>
	<rect x="342" fill="#007A36" width="171" height="342"/>
	<rect width="171" height="342"/>
	<path fill="#FFFFFF" d="M256.5,131.3c-17.5,0-31.8,14.3-31.8,31.8v47.7h63.6v-47.7C288.3,145.4,274,131.3,256.5,131.3z"/>
	<path fill="#FFFFFF" d="M256.5,93c-43.1,0-78,34.9-78,78s34.9,77.9,78,77.9s78-34.9,78-78S299.6,93,256.5,93z M256.5,235.4
		c-35.6,0-64.5-28.9-64.5-64.5s28.9-64.5,64.5-64.5S321,135.4,321,171C321,206.6,292.1,235.4,256.5,235.4z"/>
</svg>
