<?xml version="1.0" encoding="utf-8"?>
<svg version="1.1" xmlns="http://www.w3.org/2000/svg" xmlns:xlink="http://www.w3.org/1999/xlink" viewBox="0 0 270 180">
<rect y="0" fill="#003399" width="270" height="180"/>
<g fill="#FFCC00">
<path d="M135,20l2.2,6.9l7.3,0l-5.9,4.3l2.2,6.9l-5.9-4.3l-5.9,4.3l2.2-6.9l-5.9-4.3l7.3,0L135,20z"/>
<path d="M187,110l2.2,6.9l7.3,0l-5.9,4.3l2.2,6.9l-5.9-4.3l-5.9,4.3l2.2-6.9l-5.9-4.3l7.3,0L187,110z"/>
<path d="M135,140l2.2,6.9l7.3,0l-5.9,4.3l2.2,6.9l-5.9-4.3l-5.9,4.3l2.2-6.9l-5.9-4.3l7.3,0L135,140z"/>
<path d="M195,80l2.2,6.9l7.3,0l-5.9,4.3l2.2,6.9l-5.9-4.3l-5.9,4.3l2.2-6.9l-5.9-4.3l7.3,0L195,80z"/>
<path d="M75,80l2.2,6.9l7.3,0l-5.9,4.3l2.2,6.9L75,93.8l-5.9,4.3l2.2-6.9l-5.9-4.3l7.3,0L75,80z"/>
<path d="M165,28l2.2,6.9l7.3,0l-5.9,4.3l2.2,6.9l-5.9-4.3l-5.9,4.3l2.2-6.9l-5.9-4.3l7.3,0L165,28z"/>
<path d="M105,28l2.2,6.9l7.3,0l-5.9,4.3l2.2,6.9l-5.9-4.3l-5.9,4.3l2.2-6.9l-5.9-4.3l7.3,0L105,28z"/>
<path d="M105,132l2.2,6.9l7.3,0l-5.9,4.3l2.2,6.9l-5.9-4.3l-5.9,4.3l2.2-6.9l-5.9-4.3l7.3,0L105,132z"/>
<path d="M165,132l2.2,6.9l7.3,0l-5.9,4.3l2.2,6.9l-5.9-4.3l-5.9,4.3l2.2-6.9l-5.9-4.3l7.3,0L165,132z"/>
<path d="M187,50l2.2,6.9l7.3,0l-5.9,4.3l2.2,6.9l-5.9-4.3l-5.9,4.3l2.2-6.9l-5.9-4.3l7.3,0L187,50z"/>
<path d="M83,50l2.2,6.9l7.3,0l-5.9,4.3l2.2,6.9L83,63.8l-5.9,4.3l2.2-6.9l-5.9-4.3l7.3,0L83,50z"/>
<path d="M83,110l2.2,6.9l7.3,0l-5.9,4.3l2.2,6.9l-5.9-4.3l-5.9,4.3l2.2-6.9l-5.9-4.3l7.3,0L83,110z"/>
</g>
</svg>
