<?xml version="1.0" encoding="utf-8"?>
<svg version="1.1" xmlns="http://www.w3.org/2000/svg" viewBox="0 0 513 342">
<rect y="0" fill="#FFFFFF" width="513" height="342"/>
<polygon fill="#0038A8" points="513,0 513,171 256.5,171 0,0 "/>
<polygon fill="#CE1126" points="513,171 513,342 0,342 256.5,171 "/>
<g fill="#FCD116">
	<polygon points="22.1,33.8 30.6,45.7 44.4,41.2 35.8,52.9 44.3,64.7 30.5,60.1 21.9,71.8 21.9,57.2 8.2,52.7 22,48.4
		"/>
	<polygon points="22.1,270.2 30.6,282 44.4,277.6 35.8,289.3 44.3,301.1 30.5,296.5 21.9,308.2 21.9,293.6 8.2,289.1
		22,284.8 	"/>
	<polygon points="210.5,152 202,163.8 188.2,159.4 196.8,171.1 188.4,182.9 202.1,178.3 210.7,190 210.7,175.4
		224.4,170.9 210.6,166.6 	"/>
	<circle cx="95" cy="171" r="32"/>
	<path d="M95,171l11.2,56.5l-3.4,3.4l-3.7,3.5l-4.2,4.2
		l-4.2-4.2l-3.7-3.5l-3.4-3.4L95,171z"/>
	<path d="M95,171l-11.2-56.5l3.4-3.4l3.7-3.5l4.2-4.2l4.2,4.2l3.7,3.5l3.4,3.4L95,171z"/>
	<path d="M95,171l56.5-11.2l3.4,3.4l3.5,3.7l4.2,4.2
		l-4.2,4.2l-3.5,3.7l-3.4,3.4L95,171z"/>
	<path d="M95,171l-56.5,11.2l-3.4-3.4l-3.5-3.7l-4.2-4.2
		l4.2-4.2l3.5-3.7l3.4-3.4L95,171z"/>
	<path d="M95,171l32-47.9l4.8,0l5.1,0.2h5.9v5.9l0.2,5.1
		l0,4.8L95,171z"/>
	<path d="M95,171l-32,47.9l-4.8,0l-5.1-0.2h-5.9v-5.9
		l-0.2-5.1l0-4.8L95,171z"/>
	<path d="M95,171l47.9,32l0,4.8l-0.2,5.1v5.9h-5.9
		l-5.1,0.2l-4.8,0L95,171z"/>
	<path d="M95,171l-47.9-32l0-4.8l0.2-5.1v-5.9h5.9l5.1-0.2
		l4.8,0L95,171z"/>
</g>
</svg>
