<?xml version="1.0" encoding="utf-8"?>
<svg version="1.1" xmlns="http://www.w3.org/2000/svg" viewBox="0 0 900 600">
<rect y="0" fill="#FFFFFF" width="900" height="600"/>
<rect x="225" y="0" fill="#01411C" width="675" height="600"/>
<path fill="#FFFFFF" d="M562.5,120c99.4,0,180,80.6,180,180s-80.6,180-180,180s-180-80.6-180-180S463.1,120,562.5,120z"/>
<path fill="#01411C" d="M498.9,135.8c68.1-60.5,172.4-54.4,232.9,13.7c60.5,68.1,54.4,172.4-13.7,232.9s-172.4,54.4-232.9-13.7
	S430.8,196.3,498.9,135.8z"/>
<path fill="#FFFFFF" d="M628.1,165.3l75.8,85.3l-111.5-24.4L697,180.4l-57.7,98.5L628.1,165.3z"/>
</svg>
