<?xml version="1.0" encoding="utf-8"?>
<svg version="1.1" xmlns="http://www.w3.org/2000/svg" viewBox="0 0 513 342">
<rect fill="#FFFFFF" width="513" height="342"/>
<rect fill="#D52B1E" width="513" height="114"/>
<rect y="228" fill="#0038A8" width="513" height="114"/>
<path fill="#009B3A" d="M279.7,148l-8.7,8.7c3.7,3.7,6,8.8,6,14.5c0,11.3-9.2,20.5-20.5,20.5c-11.3,0-20.5-9.2-20.5-20.5
	c0-5.7,2.3-10.8,6-14.5l-8.7-8.7c-5.9,5.9-9.6,14.1-9.6,23.2c0,18.1,14.7,32.8,32.8,32.8s32.8-14.7,32.8-32.8
	C289.3,162.1,285.6,153.9,279.7,148z"/>
<polygon fill="#FEDF00" stroke="#000000" points="256.5,157.2 259.7,167.1 270.2,167.1 261.7,173.3 264.9,183.2 256.5,177 248.1,183.2 251.3,173.3
	242.8,167.1 253.3,167.1 "/>
<circle fill="none" stroke="#000000" stroke-width="2" cx="256.5" cy="171" r="45"/>
</svg>
