<?xml version="1.0" encoding="utf-8"?>
<svg version="1.1" xmlns="http://www.w3.org/2000/svg" viewBox="0 0 513 342">
<rect y="0" fill="#c6363c" width="513" height="114"/>
<rect y="114" fill="#0c4076" width="513" height="114"/>
<rect y="228" fill="#FFFFFF" width="513" height="114"/>
<path fill="#c6363c" d="M120,96.8v85.1c0,48.4,63.3,63.3,63.3,63.3s63.3-14.8,63.3-63.3V96.8L120,96.8L120,96.8z"/>
<g fill="#edb92e">
	<polygon points="146.1,111.6 220.3,111.6 220.3,82 205.5,89.4 183.2,67.1 161,89.4 146.1,82 	"/>
	<polygon points="231.7,193.8 183.4,145.6 135.2,193.8 150.9,209.5 183.4,177 215.9,209.5 	"/>
</g>
<path fill="#FFFFFF" d="M231.7,148.7h-22.5c1.3-2.2,2-4.7,2-7.4c0-8.2-6.6-14.8-14.8-14.8c-5.7,0-10.6,3.2-13.1,7.8
	c-2.5-4.7-7.4-7.8-13.1-7.8c-8.2,0-14.8,6.6-14.8,14.8c0,2.7,0.7,5.2,2,7.4h-22.1c0,8.2,7.1,14.8,15.3,14.8H150
	c0,8.2,6.6,14.8,14.8,14.8c0,7.3,5.2,13.3,12.1,14.6l-11.7,26.4c5.6,2.3,11.7,3.5,18.1,3.5s12.5-1.3,18.1-3.5L189.9,193
	c6.9-1.3,12.1-7.3,12.1-14.6c8.2,0,14.8-6.6,14.8-14.8h-0.5C224.5,163.6,231.7,156.9,231.7,148.7z"/>
</svg>
