<?xml version="1.0" encoding="utf-8"?>
<svg version="1.1" xmlns="http://www.w3.org/2000/svg" viewBox="0 0 513 342">
<rect fill="#00A5E0" width="513" height="171"/>
<rect y="171" fill="#F9D202" width="513" height="85.5"/>
<rect y="256.5" fill="#1E5F3D" width="513" height="85.5"/>
<polygon fill="#F9D202" points="420.6,36.1 422.9,72 434.5,37.9 427.5,73.2 447.4,43.3 431.6,75.5 458.6,51.8 434.9,78.8 467.1,63
	437.2,82.9 472.5,75.9 438.4,87.5 474.3,89.8 438.4,92.1 472.5,103.7 437.2,96.7 467.1,116.6 434.9,100.8 458.6,127.8 431.6,104.1
	447.4,136.3 427.5,106.4 434.5,141.7 422.9,107.6 420.6,143.5 418.3,107.6 406.7,141.7 413.7,106.4 393.8,136.3 409.6,104.1
	382.6,127.8 406.3,100.8 374.1,116.6 404,96.7 368.7,103.7 402.8,92.1 366.9,89.8 402.8,87.5 368.7,75.9 404,82.9 374.1,63
	406.3,78.8 382.6,51.8 409.6,75.5 393.8,43.3 413.7,73.2 406.7,37.9 418.3,72 "/>
<circle fill="#F9D202" stroke="#00A5E0" stroke-width="2" cx="420.6" cy="89.8" r="15.9"/>
</svg>
