<?xml version="1.0" encoding="utf-8"?>
<svg version="1.1" xmlns="http://www.w3.org/2000/svg" viewBox="0 0 513 342">
<rect fill="#205831" width="513" height="342"/>
<polyline fill="#004EB4" points="0,342 0,0 513,0 "/>
<polygon fill="#F4CA15" points="0,328 0,342 28,342 513,14 513,0 485,0 "/>
<g fill="#FFFFFF">
	<polygon points="47.2,11.5 54,32.6 76.3,32.6 58.3,45.8 65.2,66.9 47.2,53.8 29.2,66.9 36,45.8 18,32.6 40.3,32.6 	"/>
	<polygon points="160.8,11.5 167.7,32.6 190,32.6 172,45.8 178.8,66.9 160.8,53.8 142.8,66.9 149.7,45.8 131.7,32.6
		154,32.6 	"/>
	<polygon points="47.2,122.3 54,143.4 76.3,143.4 58.3,156.6 65.2,177.7 47.2,164.7 29.2,177.7 36,156.6 18,143.4
		40.3,143.4 	"/>
	<polygon points="160.8,122.3 167.7,143.4 190,143.4 172,156.6 178.8,177.7 160.8,164.7 142.8,177.7 149.7,156.6
		131.7,143.4 154,143.4 	"/>
	<polygon points="104,66.9 110.8,88.1 133.1,88.1 115.1,101.1 122,122.3 104,109.2 86,122.3 92.8,101.1 74.8,88.1
		97.1,88.1 	"/>
</g>
</svg>
