<?xml version="1.0" encoding="utf-8"?>
<svg version="1.1" xmlns="http://www.w3.org/2000/svg" viewBox="0 0 900 600">
<path fill="#FFFFFF" d="M0,0h900v600H0V0z"/>
<path fill="#ED2939" d="M0,0h900v300H0V0z"/>
<g fill="#FFFFFF">
	<path d="M129.7,150c0-48.8,29-90.9,70.6-109.9c-3.4-0.3-6.8-0.5-10.2-0.5C129.1,39.6,79.7,89,79.7,150
		s49.4,110.4,110.4,110.4c3.4,0,6.9-0.2,10.2-0.5C158.6,240.9,129.7,198.8,129.7,150z"/>
	<polygon points="260.9,90.1 277.8,77.8 257,77.8 250.5,57.9 244,77.8 223.2,77.8 240.1,90.1 233.6,109.9 250.5,97.6
		267.4,109.9 "/>
	<polygon points="298.2,204.6 315.1,192.4 294.2,192.4 287.7,172.5 281.3,192.4 260.4,192.4 277.3,204.6 270.8,224.5
		287.7,212.2 304.6,224.5 "/>
	<polygon points="200.7,133.8 217.6,121.5 196.7,121.5 190.3,101.7 183.8,121.5 162.9,121.5 179.8,133.8 173.4,153.7
		190.3,141.4 207.2,153.7 "/>
	<polygon points="338.1,121.5 317.2,121.5 310.7,101.7 304.3,121.5 283.4,121.5 300.3,133.8 293.8,153.7 310.7,141.4
		327.6,153.7 321.2,133.8 "/>
	<polygon points="223.7,204.6 240.6,192.4 219.7,192.4 213.3,172.5 206.8,192.4 185.9,192.4 202.8,204.6 196.4,224.5
		213.3,212.2 230.2,224.5 "/>
</g>
</svg>
