<?xml version="1.0" encoding="utf-8"?>
<svg version="1.1" xmlns="http://www.w3.org/2000/svg" viewBox="0 0 240 160">
<path fill="#FF0D0B" d="M0,0h240v160H0V0z"/>
<path fill="#0E55BD" d="M0,0h240v106.7H0V0z"/>
<path fill="#FFFFFF" d="M0,0h240v53.3H0V0z"/>
<path fill="#0E55BD" d="M99.5,30.8c-12.4-5.5-26.4-5.5-38.8,0C58.5,59.5,65.1,75.6,80,79.5C94.9,75.6,101.5,59.5,99.5,30.8z"/>
<g fill="#FFFF00">
	<polygon points="82,37.1 80.5,37.2 80,35.9 79.5,37.2 78,37.1 78.8,38.3 78,39.5 79.5,39.3 80,40.5 80.5,39.3 82,39.5
		81.2,38.3 	"/>
	<polygon points="76.5,29.7 75.1,29.9 74.5,28.5 73.9,29.9 72.5,29.7 73.3,30.9 72.5,32.1 73.9,32 74.5,33.3 75.1,32
		76.5,32.1 75.7,30.9 	"/>
	<polygon points="87.5,29.7 86.1,29.9 85.5,28.5 84.9,29.9 83.5,29.7 84.3,30.9 83.5,32.1 84.9,32 85.5,33.3 86.1,32
		87.5,32.1 86.7,30.9 	"/>
</g>
<path fill="#FFFFFF" d="M87.9,48.7l-3.1,4.1l-4.7-9.3l-4.7,9.3l-3.1-4.1l-7.9,10.4c0,0.5,0.1,0.9,0.3,1.5c2.1,7.6,8,13.7,15.5,16.3
	c7.5-2.5,13.3-8.7,15.5-16.3c0.1-0.4,0.3-0.9,0.3-1.5L87.9,48.7z"/>
<path fill="#0E55BD" d="M64.5,60.5c0.8,2.8,3.7,4.4,6.4,3.6c0.4-0.1,0.8-0.3,1.2-0.5c1.6-0.9,3.6-0.9,5.2,0c1.6,0.9,3.6,0.9,5.2,0
	c1.6-0.9,3.6-0.9,5.2,0c2.5,1.5,5.7,0.5,7.1-1.9c0.3-0.4,0.4-0.8,0.5-1.2l0.3,0.1v3.9c-0.9,0-1.9,0.3-2.7,0.7
	c-1.6,0.9-3.6,0.9-5.2,0c-1.6-0.9-3.6-0.9-5.2,0c-1.6,0.9-3.6,0.9-5.2,0c-1.6-0.9-3.6-0.9-5.2,0s-3.6,0.9-5.2,0
	c-0.8-0.4-1.7-0.7-2.7-0.7v-3.9"/>
<path fill="#0E55BD" d="M64.5,63.6c0.8,2.8,3.7,4.4,6.4,3.6c0.4-0.1,0.8-0.3,1.2-0.5c1.6-0.9,3.6-0.9,5.2,0c1.6,0.9,3.6,0.9,5.2,0
	s3.6-0.9,5.2,0c2.5,1.5,5.7,0.5,7.1-1.9c0.3-0.4,0.4-0.8,0.5-1.2l0.3,0.1v3.9c-0.9,0-1.9,0.3-2.7,0.7c-1.6,0.9-3.6,0.9-5.2,0
	c-1.6-0.9-3.6-0.9-5.2,0c-1.6,0.9-3.6,0.9-5.2,0c-1.6-0.9-3.6-0.9-5.2,0s-3.6,0.9-5.2,0c-0.8-0.4-1.7-0.7-2.7-0.7v-3.9"/>
<path fill="#FF0D0B" d="M99.5,30.8l-1.6,24.8C97.2,66.1,90.1,75.3,80,78.5c-10.1-3.2-17.2-12.3-17.9-22.9l-1.6-24.8
	c-0.5,0.3-0.9,0.4-1.5,0.7l1.5,24.1C61.3,66.9,69.1,76.7,80,80c10.9-3.3,18.7-13.1,19.3-24.4l1.5-24.1
	C100.4,31.2,99.9,30.9,99.5,30.8z"/>
</svg>
